<?xml version="1.0" encoding="UTF-8"?>
<svg xmlns="http://www.w3.org/2000/svg" xmlns:xlink="http://www.w3.org/1999/xlink" width="14px" height="14px" viewBox="0 0 14 14" version="1.1">
<g id="surface1">
<path style=" stroke:none; fill-rule:nonzero; fill: white; fill-opacity:1;" d="M 13.246094 0.753906 C 12.761719 0.265625 12.113281 0 11.429688 0 C 10.742188 0 10.097656 0.265625 9.609375 0.753906 L 1.878906 8.441406 C 1.832031 8.484375 1.796875 8.539062 1.777344 8.601562 L 0.0273438 13.414062 C -0.0234375 13.546875 -0.00390625 13.695312 0.078125 13.8125 C 0.160156 13.929688 0.292969 14 0.4375 14 C 0.480469 14 0.523438 13.992188 0.566406 13.980469 L 4.917969 12.644531 C 4.988281 12.625 5.050781 12.585938 5.097656 12.535156 L 13.246094 4.390625 C 13.730469 3.910156 14.003906 3.253906 14 2.570312 C 14 1.890625 13.730469 1.234375 13.246094 0.753906 Z M 4.414062 11.882812 L 2.785156 12.386719 C 2.695312 12.113281 2.542969 11.863281 2.339844 11.65625 C 2.167969 11.488281 1.964844 11.347656 1.75 11.238281 L 2.492188 9.1875 L 3.5 9.1875 L 3.5 10.0625 C 3.5 10.304688 3.695312 10.5 3.9375 10.5 L 4.710938 10.5 Z M 10.855469 5.542969 L 5.523438 10.875 L 5.679688 10.152344 C 5.707031 10.023438 5.671875 9.890625 5.589844 9.789062 C 5.507812 9.683594 5.382812 9.625 5.25 9.625 L 4.375 9.625 L 4.375 8.75 C 4.375 8.507812 4.179688 8.3125 3.9375 8.3125 L 3.246094 8.3125 L 8.449219 3.140625 L 8.457031 3.144531 C 8.777344 2.824219 9.203125 2.648438 9.65625 2.648438 C 10.109375 2.648438 10.535156 2.824219 10.855469 3.144531 C 11.175781 3.464844 11.351562 3.890625 11.351562 4.34375 C 11.355469 4.792969 11.175781 5.226562 10.855469 5.542969 Z M 12.628906 3.773438 L 12.21875 4.179688 C 12.183594 3.554688 11.917969 2.96875 11.472656 2.523438 C 11.03125 2.082031 10.441406 1.816406 9.816406 1.78125 L 10.226562 1.371094 L 10.230469 1.371094 C 10.546875 1.050781 10.976562 0.875 11.429688 0.875 C 11.882812 0.875 12.308594 1.050781 12.628906 1.371094 C 12.945312 1.6875 13.125 2.121094 13.125 2.570312 C 13.125 3.023438 12.949219 3.453125 12.628906 3.773438 Z M 9.753906 3.628906 L 5.378906 8.003906 C 5.207031 8.175781 5.207031 8.449219 5.378906 8.621094 C 5.550781 8.792969 5.824219 8.792969 5.996094 8.621094 L 10.371094 4.246094 C 10.542969 4.074219 10.542969 3.800781 10.371094 3.628906 C 10.199219 3.457031 9.925781 3.457031 9.753906 3.628906 Z M 9.753906 3.628906 "/>
</g>
</svg>
