<?xml version="1.0" encoding="UTF-8"?>
<svg xmlns="http://www.w3.org/2000/svg" xmlns:xlink="http://www.w3.org/1999/xlink" width="14px" height="14px" viewBox="0 0 14 14" version="1.1">
<g id="surface1">
<path style=" stroke:none;fill-rule:nonzero;fill: white;fill-opacity:1;" d="M 9.015625 7.222656 C 8.886719 7.097656 8.886719 6.902344 9.015625 6.777344 L 13.808594 1.980469 C 13.9375 1.855469 14 1.660156 14 1.535156 C 14 1.40625 13.9375 1.214844 13.808594 1.085938 L 12.914062 0.191406 C 12.785156 0.0625 12.59375 0 12.464844 0 C 12.273438 0 12.144531 0.0625 12.019531 0.191406 L 7.222656 4.984375 C 7.097656 5.113281 6.902344 5.113281 6.777344 4.984375 L 1.980469 0.191406 C 1.855469 0.0625 1.660156 0 1.535156 0 C 1.40625 0 1.214844 0.0625 1.085938 0.191406 L 0.191406 1.085938 C 0.0625 1.214844 0 1.40625 0 1.535156 C 0 1.660156 0.0625 1.855469 0.191406 1.980469 L 4.984375 6.777344 C 5.113281 6.902344 5.113281 7.097656 4.984375 7.222656 L 0.191406 12.019531 C 0.0625 12.144531 0 12.339844 0 12.464844 C 0 12.59375 0.0625 12.785156 0.191406 12.914062 L 1.085938 13.808594 C 1.214844 13.9375 1.40625 14 1.535156 14 C 1.660156 14 1.855469 13.9375 1.980469 13.808594 L 6.777344 9.015625 C 6.902344 8.886719 7.097656 8.886719 7.222656 9.015625 L 12.019531 13.808594 C 12.144531 13.9375 12.339844 14 12.464844 14 C 12.59375 14 12.785156 13.9375 12.914062 13.808594 L 13.808594 12.914062 C 13.9375 12.785156 14 12.59375 14 12.464844 C 14 12.339844 13.9375 12.144531 13.808594 12.019531 Z M 9.015625 7.222656 "/>
</g>
</svg>
