<?xml version="1.0" encoding="UTF-8"?>
<svg xmlns="http://www.w3.org/2000/svg" xmlns:xlink="http://www.w3.org/1999/xlink" width="52px" height="52px" viewBox="0 0 52 52" version="1.1">
<g id="surface1">
<path style=" stroke:none;fill-rule:nonzero;fill:rgb(0%,0%,0%);fill-opacity:1;" d="M 26 0 C 11.664062 0 0 11.664062 0 26 C 0 40.335938 11.664062 52 26 52 C 40.335938 52 52 40.335938 52 26 C 52 11.664062 40.335938 0 26 0 Z M 26 50 C 12.765625 50 2 39.234375 2 26 C 2 12.765625 12.765625 2 26 2 C 39.234375 2 50 12.765625 50 26 C 50 39.234375 39.234375 50 26 50 Z M 26 50 "/>
<path style=" stroke:none;fill-rule:nonzero;fill:rgb(0%,0%,0%);fill-opacity:1;" d="M 26 10 C 25.449219 10 25 10.449219 25 11 L 25 33 C 25 33.550781 25.449219 34 26 34 C 26.550781 34 27 33.550781 27 33 L 27 11 C 27 10.449219 26.550781 10 26 10 Z M 26 37 C 25.449219 37 25 37.449219 25 38 L 25 40 C 25 40.550781 25.449219 41 26 41 C 26.550781 41 27 40.550781 27 40 L 27 38 C 27 37.449219 26.550781 37 26 37 Z M 26 37 "/>
</g>
</svg>
